<svg width="96" height="43" viewBox="0 0 96 43" fill="none" xmlns="http://www.w3.org/2000/svg">
<path d="M45.0992 20.2H38V0H57.5992V6.3H45.0992V11.3H55.5992V17.7H45.0992V20.2Z" fill="#3294F1"/>
<path d="M7.4 42.9H0L28 0.599976H35.3V22.9H45.1V29.4H28V11.4L7.4 42.9Z" fill="black"/>
<path d="M25.4943 35.4808H23.9747L23.7311 36.2H22.6929L24.1661 32.1284H25.3145L26.7877 36.2H25.7379L25.4943 35.4808ZM25.2391 34.7152L24.7345 33.2246L24.2357 34.7152H25.2391ZM28.7035 32.1284C29.1327 32.1284 29.5077 32.2134 29.8287 32.3836C30.1496 32.5537 30.3971 32.7934 30.5711 33.1028C30.7489 33.4082 30.8379 33.762 30.8379 34.1642C30.8379 34.5624 30.7489 34.9162 30.5711 35.2256C30.3971 35.5349 30.1477 35.7746 29.8229 35.9448C29.5019 36.1149 29.1288 36.2 28.7035 36.2H27.1781V32.1284H28.7035ZM28.6397 35.3416C29.0147 35.3416 29.3067 35.2391 29.5155 35.0342C29.7243 34.8292 29.8287 34.5392 29.8287 34.1642C29.8287 33.7891 29.7243 33.4972 29.5155 33.2884C29.3067 33.0796 29.0147 32.9752 28.6397 32.9752H28.1699V35.3416H28.6397ZM34.8605 32.1284V36.2H33.8687V34.5238H32.3259V36.2H31.3341V32.1284H32.3259V33.7234H33.8687V32.1284H34.8605ZM39.0101 32.1284L37.6007 34.8544V36.2H36.6089V34.8544L35.1995 32.1284H36.3247L37.1135 33.8336L37.8965 32.1284H39.0101ZM41.8863 35.4808H40.3667L40.1231 36.2H39.0849L40.5581 32.1284H41.7065L43.1797 36.2H42.1299L41.8863 35.4808ZM41.6311 34.7152L41.1265 33.2246L40.6277 34.7152H41.6311ZM47.0617 32.1284L45.6523 34.8544V36.2H44.6605V34.8544L43.2511 32.1284H44.3763L45.1651 33.8336L45.9481 32.1284H47.0617ZM49.9379 35.4808H48.4183L48.1747 36.2H47.1365L48.6097 32.1284H49.7581L51.2313 36.2H50.1815L49.9379 35.4808ZM49.6827 34.7152L49.1781 33.2246L48.6793 34.7152H49.6827ZM55.2641 36.2H54.2723L52.6135 33.6886V36.2H51.6217V32.1284H52.6135L54.2723 34.6514V32.1284H55.2641V36.2Z" fill="black"/>
<path d="M59.7467 32.1284V32.923H58.0879V33.7814H59.3291V34.5528H58.0879V36.2H57.0961V32.1284H59.7467ZM62.1356 36.2406C61.7528 36.2406 61.4009 36.1516 61.08 35.9738C60.7629 35.7959 60.5096 35.5484 60.3202 35.2314C60.1346 34.9104 60.0418 34.5508 60.0418 34.1526C60.0418 33.7543 60.1346 33.3966 60.3202 33.0796C60.5096 32.7625 60.7629 32.515 61.08 32.3372C61.4009 32.1593 61.7528 32.0704 62.1356 32.0704C62.5184 32.0704 62.8683 32.1593 63.1854 32.3372C63.5063 32.515 63.7576 32.7625 63.9394 33.0796C64.125 33.3966 64.2178 33.7543 64.2178 34.1526C64.2178 34.5508 64.125 34.9104 63.9394 35.2314C63.7538 35.5484 63.5024 35.7959 63.1854 35.9738C62.8683 36.1516 62.5184 36.2406 62.1356 36.2406ZM62.1356 35.3358C62.4604 35.3358 62.7194 35.2275 62.9128 35.011C63.11 34.7944 63.2086 34.5083 63.2086 34.1526C63.2086 33.793 63.11 33.5068 62.9128 33.2942C62.7194 33.0776 62.4604 32.9694 62.1356 32.9694C61.8069 32.9694 61.544 33.0757 61.3468 33.2884C61.1534 33.501 61.0568 33.7891 61.0568 34.1526C61.0568 34.5122 61.1534 34.8002 61.3468 35.0168C61.544 35.2294 61.8069 35.3358 62.1356 35.3358ZM65.6859 32.1284V34.5644C65.6859 34.808 65.7459 34.9955 65.8657 35.127C65.9856 35.2584 66.1615 35.3242 66.3935 35.3242C66.6255 35.3242 66.8034 35.2584 66.9271 35.127C67.0509 34.9955 67.1127 34.808 67.1127 34.5644V32.1284H68.1045V34.5586C68.1045 34.922 68.0272 35.2294 67.8725 35.4808C67.7179 35.7321 67.5091 35.9216 67.2461 36.0492C66.9871 36.1768 66.6971 36.2406 66.3761 36.2406C66.0552 36.2406 65.7671 36.1787 65.5119 36.055C65.2606 35.9274 65.0615 35.7379 64.9145 35.4866C64.7676 35.2314 64.6941 34.922 64.6941 34.5586V32.1284H65.6859ZM72.3854 36.2H71.3936L69.7348 33.6886V36.2H68.743V32.1284H69.7348L71.3936 34.6514V32.1284H72.3854V36.2ZM74.5717 32.1284C75.0009 32.1284 75.376 32.2134 75.6969 32.3836C76.0179 32.5537 76.2653 32.7934 76.4393 33.1028C76.6172 33.4082 76.7061 33.762 76.7061 34.1642C76.7061 34.5624 76.6172 34.9162 76.4393 35.2256C76.2653 35.5349 76.0159 35.7746 75.6911 35.9448C75.3702 36.1149 74.9971 36.2 74.5717 36.2H73.0463V32.1284H74.5717ZM74.5079 35.3416C74.883 35.3416 75.1749 35.2391 75.3837 35.0342C75.5925 34.8292 75.6969 34.5392 75.6969 34.1642C75.6969 33.7891 75.5925 33.4972 75.3837 33.2884C75.1749 33.0796 74.883 32.9752 74.5079 32.9752H74.0381V35.3416H74.5079ZM79.737 35.4808H78.2174L77.9738 36.2H76.9356L78.4088 32.1284H79.5572L81.0304 36.2H79.9806L79.737 35.4808ZM79.4818 34.7152L78.9772 33.2246L78.4784 34.7152H79.4818ZM84.3498 32.1284V32.923H83.271V36.2H82.2792V32.923H81.2004V32.1284H84.3498ZM85.7813 32.1284V36.2H84.7895V32.1284H85.7813ZM88.3677 36.2406C87.9849 36.2406 87.633 36.1516 87.3121 35.9738C86.995 35.7959 86.7417 35.5484 86.5523 35.2314C86.3667 34.9104 86.2739 34.5508 86.2739 34.1526C86.2739 33.7543 86.3667 33.3966 86.5523 33.0796C86.7417 32.7625 86.995 32.515 87.3121 32.3372C87.633 32.1593 87.9849 32.0704 88.3677 32.0704C88.7505 32.0704 89.1004 32.1593 89.4175 32.3372C89.7384 32.515 89.9897 32.7625 90.1715 33.0796C90.3571 33.3966 90.4499 33.7543 90.4499 34.1526C90.4499 34.5508 90.3571 34.9104 90.1715 35.2314C89.9859 35.5484 89.7345 35.7959 89.4175 35.9738C89.1004 36.1516 88.7505 36.2406 88.3677 36.2406ZM88.3677 35.3358C88.6925 35.3358 88.9515 35.2275 89.1449 35.011C89.3421 34.7944 89.4407 34.5083 89.4407 34.1526C89.4407 33.793 89.3421 33.5068 89.1449 33.2942C88.9515 33.0776 88.6925 32.9694 88.3677 32.9694C88.039 32.9694 87.7761 33.0757 87.5789 33.2884C87.3855 33.501 87.2889 33.7891 87.2889 34.1526C87.2889 34.5122 87.3855 34.8002 87.5789 35.0168C87.7761 35.2294 88.039 35.3358 88.3677 35.3358ZM94.586 36.2H93.5942L91.9354 33.6886V36.2H90.9436V32.1284H91.9354L93.5942 34.6514V32.1284H94.586V36.2Z" fill="#3294F1"/>
<path d="M24.7681 41.028C24.5841 41.028 24.4214 40.996 24.2801 40.932C24.1414 40.868 24.0321 40.7787 23.9521 40.664C23.8721 40.5493 23.8294 40.4213 23.8241 40.28H24.1201C24.1334 40.416 24.1934 40.536 24.3001 40.64C24.4068 40.7413 24.5628 40.792 24.7681 40.792C24.9574 40.792 25.1068 40.744 25.2161 40.648C25.3281 40.5493 25.3841 40.4253 25.3841 40.276C25.3841 40.156 25.3534 40.06 25.2921 39.988C25.2308 39.9133 25.1548 39.8587 25.0641 39.824C24.9734 39.7867 24.8481 39.7467 24.6881 39.704C24.5014 39.6533 24.3534 39.604 24.2441 39.556C24.1348 39.508 24.0414 39.4333 23.9641 39.332C23.8868 39.2307 23.8481 39.0933 23.8481 38.92C23.8481 38.776 23.8854 38.648 23.9601 38.536C24.0348 38.4213 24.1401 38.332 24.2761 38.268C24.4121 38.204 24.5681 38.172 24.7441 38.172C25.0028 38.172 25.2108 38.236 25.3681 38.364C25.5281 38.4893 25.6201 38.652 25.6441 38.852H25.3401C25.3214 38.7373 25.2588 38.636 25.1521 38.548C25.0454 38.4573 24.9014 38.412 24.7201 38.412C24.5521 38.412 24.4121 38.4573 24.3001 38.548C24.1881 38.636 24.1321 38.7573 24.1321 38.912C24.1321 39.0293 24.1628 39.124 24.2241 39.196C24.2854 39.268 24.3614 39.3227 24.4521 39.36C24.5454 39.3973 24.6708 39.4373 24.8281 39.48C25.0094 39.5307 25.1561 39.5813 25.2681 39.632C25.3801 39.68 25.4748 39.7547 25.5521 39.856C25.6294 39.9573 25.6681 40.0933 25.6681 40.264C25.6681 40.3947 25.6334 40.5187 25.5641 40.636C25.4948 40.7533 25.3921 40.848 25.2561 40.92C25.1201 40.992 24.9574 41.028 24.7681 41.028ZM30.2852 38.204V41H30.0052V39.692H28.4892V41H28.2092V38.204H28.4892V39.46H30.0052V38.204H30.2852ZM34.544 40.336H33.272L33.028 41H32.732L33.752 38.24H34.068L35.084 41H34.788L34.544 40.336ZM34.46 40.104L33.908 38.592L33.356 40.104H34.46ZM39.3214 39.008C39.3214 39.248 39.2427 39.4413 39.0854 39.588C38.928 39.7347 38.692 39.808 38.3774 39.808H37.8134V41H37.5334V38.204H38.3774C38.6894 38.204 38.924 38.2773 39.0814 38.424C39.2414 38.5707 39.3214 38.7653 39.3214 39.008ZM38.3774 39.568C38.8147 39.568 39.0334 39.3813 39.0334 39.008C39.0334 38.8213 38.9814 38.68 38.8774 38.584C38.7734 38.488 38.6067 38.44 38.3774 38.44H37.8134V39.568H38.3774ZM42.0712 38.432V39.476H43.1312V39.708H42.0712V40.768H43.2512V41H41.7912V38.2H43.2512V38.432H42.0712ZM50.7486 38.204L49.8526 39.912V41H49.5726V39.912L48.6686 38.204H48.9846L49.7126 39.656L50.4366 38.204H50.7486ZM54.4144 41.028C54.1557 41.028 53.921 40.968 53.7104 40.848C53.4997 40.7253 53.333 40.556 53.2104 40.34C53.0904 40.1213 53.0304 39.8747 53.0304 39.6C53.0304 39.3253 53.0904 39.08 53.2104 38.864C53.333 38.6453 53.4997 38.476 53.7104 38.356C53.921 38.2333 54.1557 38.172 54.4144 38.172C54.6757 38.172 54.9117 38.2333 55.1224 38.356C55.333 38.476 55.4984 38.6453 55.6184 38.864C55.7384 39.08 55.7984 39.3253 55.7984 39.6C55.7984 39.8747 55.7384 40.1213 55.6184 40.34C55.4984 40.556 55.333 40.7253 55.1224 40.848C54.9117 40.968 54.6757 41.028 54.4144 41.028ZM54.4144 40.784C54.6224 40.784 54.809 40.736 54.9744 40.64C55.1397 40.544 55.2704 40.4067 55.3664 40.228C55.4624 40.0467 55.5104 39.8373 55.5104 39.6C55.5104 39.3627 55.4624 39.1547 55.3664 38.976C55.2704 38.7973 55.1397 38.66 54.9744 38.564C54.809 38.468 54.6224 38.42 54.4144 38.42C54.2064 38.42 54.0197 38.468 53.8544 38.564C53.689 38.66 53.5584 38.7973 53.4624 38.976C53.3664 39.1547 53.3184 39.3627 53.3184 39.6C53.3184 39.8373 53.3664 40.0467 53.4624 40.228C53.5584 40.4067 53.689 40.544 53.8544 40.64C54.0197 40.736 54.2064 40.784 54.4144 40.784ZM58.5787 38.204V39.964C58.5787 40.2413 58.6441 40.4467 58.7747 40.58C58.9081 40.7133 59.0894 40.78 59.3187 40.78C59.5481 40.78 59.7267 40.7147 59.8547 40.584C59.9854 40.4507 60.0507 40.244 60.0507 39.964V38.204H60.3307V39.96C60.3307 40.3147 60.2361 40.5813 60.0467 40.76C59.8601 40.9387 59.6161 41.028 59.3147 41.028C59.0134 41.028 58.7681 40.9387 58.5787 40.76C58.3921 40.5813 58.2987 40.3147 58.2987 39.96V38.204H58.5787ZM64.4433 41L63.7513 39.832H63.2353V41H62.9553V38.204H63.7953C64.1073 38.204 64.3433 38.2787 64.5033 38.428C64.6659 38.5773 64.7473 38.7733 64.7473 39.016C64.7473 39.2187 64.6886 39.392 64.5713 39.536C64.4566 39.6773 64.2859 39.7693 64.0593 39.812L64.7793 41H64.4433ZM63.2353 39.604H63.7993C64.0179 39.604 64.1819 39.5507 64.2913 39.444C64.4033 39.3373 64.4593 39.1947 64.4593 39.016C64.4593 38.832 64.4059 38.6907 64.2993 38.592C64.1926 38.4907 64.0246 38.44 63.7953 38.44H63.2353V39.604ZM71.9126 38.204V38.436H70.6806V39.48H71.7206V39.712H70.6806V41H70.4006V38.204H71.9126ZM74.6412 38.204V39.964C74.6412 40.2413 74.7066 40.4467 74.8372 40.58C74.9706 40.7133 75.1519 40.78 75.3812 40.78C75.6106 40.78 75.7892 40.7147 75.9172 40.584C76.0479 40.4507 76.1132 40.244 76.1132 39.964V38.204H76.3932V39.96C76.3932 40.3147 76.2986 40.5813 76.1092 40.76C75.9226 40.9387 75.6786 41.028 75.3772 41.028C75.0759 41.028 74.8306 40.9387 74.6412 40.76C74.4546 40.5813 74.3612 40.3147 74.3612 39.96V38.204H74.6412ZM80.6538 38.204V38.436H79.8778V41H79.5978V38.436H78.8178V38.204H80.6538ZM83.3639 38.204V39.964C83.3639 40.2413 83.4292 40.4467 83.5599 40.58C83.6932 40.7133 83.8745 40.78 84.1039 40.78C84.3332 40.78 84.5119 40.7147 84.6399 40.584C84.7705 40.4507 84.8359 40.244 84.8359 39.964V38.204H85.1159V39.96C85.1159 40.3147 85.0212 40.5813 84.8319 40.76C84.6452 40.9387 84.4012 41.028 84.0999 41.028C83.7985 41.028 83.5532 40.9387 83.3639 40.76C83.1772 40.5813 83.0839 40.3147 83.0839 39.96V38.204H83.3639ZM89.2284 41L88.5364 39.832H88.0204V41H87.7404V38.204H88.5804C88.8924 38.204 89.1284 38.2787 89.2884 38.428C89.4511 38.5773 89.5324 38.7733 89.5324 39.016C89.5324 39.2187 89.4737 39.392 89.3564 39.536C89.2417 39.6773 89.0711 39.7693 88.8444 39.812L89.5644 41H89.2284ZM88.0204 39.604H88.5844C88.8031 39.604 88.9671 39.5507 89.0764 39.444C89.1884 39.3373 89.2444 39.1947 89.2444 39.016C89.2444 38.832 89.1911 38.6907 89.0844 38.592C88.9777 38.4907 88.8097 38.44 88.5804 38.44H88.0204V39.604ZM92.3681 38.432V39.476H93.4281V39.708H92.3681V40.768H93.5481V41H92.0881V38.2H93.5481V38.432H92.3681Z" fill="black"/>
</svg>
