<svg width="208" height="43" viewBox="0 0 208 43" fill="none" xmlns="http://www.w3.org/2000/svg">
<path d="M33.0273 21.8254C33.0273 19.6741 33.4593 17.7607 34.3231 16.0851C35.1869 14.3889 36.3866 13.0754 37.9223 12.1445C39.4772 11.193 41.2336 10.7172 43.1916 10.7172C45.5911 10.7172 47.6451 11.3998 49.3535 12.7651C51.0619 14.1304 52.2041 15.9921 52.78 18.3502H47.3667C46.9636 17.4401 46.3877 16.7471 45.6391 16.2713C44.9096 15.7955 44.0746 15.5577 43.134 15.5577C41.6175 15.5577 40.389 16.1265 39.4484 17.2642C38.5078 18.4019 38.0375 19.9223 38.0375 21.8254C38.0375 23.7285 38.5078 25.2489 39.4484 26.3866C40.389 27.5243 41.6175 28.0932 43.134 28.0932C44.0746 28.0932 44.9096 27.8553 45.6391 27.3795C46.3877 26.9037 46.9636 26.2108 47.3667 25.3006H52.78C52.2041 27.6588 51.0619 29.5205 49.3535 30.8857C47.6451 32.2303 45.5911 32.9026 43.1916 32.9026C41.2336 32.9026 39.4772 32.4372 37.9223 31.5063C36.3866 30.5548 35.1869 29.2412 34.3231 27.5657C33.4593 25.8901 33.0273 23.9767 33.0273 21.8254Z" fill="#2D1D76"/>
<path d="M54.8162 24.0595C54.8162 22.2805 55.1234 20.7187 55.7376 19.3742C56.3711 18.0296 57.2253 16.9953 58.3003 16.2713C59.3753 15.5473 60.575 15.1853 61.8995 15.1853C63.0321 15.1853 64.0207 15.4335 64.8653 15.93C65.7291 16.4265 66.3914 17.0781 66.8521 17.8848V15.4335H71.7759V32.7474H66.8521V30.2962C66.3722 31.1029 65.7003 31.7545 64.8365 32.251C63.9919 32.7474 63.0033 32.9957 61.8708 32.9957C60.5654 32.9957 59.3753 32.6337 58.3003 31.9097C57.2253 31.165 56.3711 30.1204 55.7376 28.7758C55.1234 27.4105 54.8162 25.8384 54.8162 24.0595ZM66.8521 24.0905C66.8521 22.7666 66.5066 21.722 65.8155 20.9566C65.1437 20.1912 64.3182 19.8086 63.3392 19.8086C62.3603 19.8086 61.5252 20.1912 60.8342 20.9566C60.1623 21.7013 59.8264 22.7356 59.8264 24.0595C59.8264 25.3833 60.1623 26.4383 60.8342 27.2244C61.5252 27.9897 62.3603 28.3724 63.3392 28.3724C64.3182 28.3724 65.1437 27.9897 65.8155 27.2244C66.5066 26.459 66.8521 25.4144 66.8521 24.0905Z" fill="#2D1D76"/>
<path d="M80.2617 18.3192C80.8376 17.3677 81.5575 16.623 82.4213 16.0851C83.2851 15.5266 84.2449 15.2474 85.3007 15.2474V20.8635H83.9474C82.7188 20.8635 81.7974 21.1531 81.1832 21.7323C80.5689 22.2908 80.2617 23.2838 80.2617 24.7111V32.7474H75.338V15.4335H80.2617V18.3192Z" fill="#2D1D76"/>
<path d="M102.8 23.8112C102.8 24.3077 102.771 24.8248 102.713 25.3627H91.5701C91.6469 26.4383 91.9636 27.2657 92.5203 27.8449C93.0962 28.4035 93.7968 28.6827 94.6223 28.6827C95.8508 28.6827 96.705 28.1242 97.1849 27.0072H102.425C102.157 28.1449 101.667 29.1688 100.957 30.079C100.266 30.9892 99.3925 31.7028 98.3367 32.22C97.2809 32.7371 96.1004 32.9957 94.795 32.9957C93.221 32.9957 91.8197 32.6337 90.5911 31.9097C89.3626 31.1857 88.4028 30.1514 87.7117 28.8068C87.0207 27.4623 86.6751 25.8901 86.6751 24.0905C86.6751 22.2908 87.0111 20.7187 87.6829 19.3742C88.374 18.0296 89.3338 16.9953 90.5623 16.2713C91.7909 15.5473 93.2018 15.1853 94.795 15.1853C96.3499 15.1853 97.732 15.537 98.9414 16.2403C100.151 16.9436 101.091 17.9469 101.763 19.25C102.454 20.5532 102.8 22.0736 102.8 23.8112ZM97.7608 22.415C97.7608 21.5048 97.4729 20.7808 96.897 20.243C96.3211 19.7051 95.6013 19.4362 94.7374 19.4362C93.912 19.4362 93.2114 19.6948 92.6355 20.2119C92.0788 20.7291 91.7333 21.4634 91.5989 22.415H97.7608Z" fill="#2D1D76"/>
<path d="M126.636 11.2757V32.7474H124.016V16.7367L117.394 32.7474H115.551L108.899 16.7057V32.7474H106.279V11.2757H109.101L116.472 29.024L123.843 11.2757H126.636Z" fill="#2D1D76"/>
<path d="M145.477 23.594C145.477 24.1319 145.448 24.7007 145.391 25.3006H132.779C132.875 26.9761 133.403 28.2897 134.363 29.2412C135.342 30.1721 136.522 30.6375 137.904 30.6375C139.037 30.6375 139.977 30.3582 140.726 29.7997C141.494 29.2205 142.031 28.4552 142.339 27.5036H145.16C144.738 29.1378 143.893 30.472 142.626 31.5063C141.36 32.5199 139.785 33.0267 137.904 33.0267C136.407 33.0267 135.063 32.6647 133.873 31.9407C132.702 31.2167 131.781 30.1928 131.109 28.8689C130.437 27.5243 130.101 25.9729 130.101 24.2146C130.101 22.4563 130.427 20.9152 131.08 19.5914C131.733 18.2675 132.645 17.2539 133.816 16.5506C135.006 15.8266 136.369 15.4646 137.904 15.4646C139.402 15.4646 140.726 15.8162 141.878 16.5195C143.03 17.2229 143.913 18.1951 144.527 19.4362C145.16 20.6567 145.477 22.0426 145.477 23.594ZM142.77 23.0045C142.77 21.9288 142.55 21.0083 142.108 20.243C141.667 19.4569 141.062 18.8674 140.294 18.4743C139.546 18.0606 138.71 17.8538 137.789 17.8538C136.465 17.8538 135.332 18.3089 134.391 19.219C133.47 20.1292 132.942 21.391 132.808 23.0045H142.77Z" fill="#2D1D76"/>
<path d="M147.957 24.1836C147.957 22.446 148.283 20.9256 148.936 19.6224C149.588 18.2985 150.481 17.2746 151.614 16.5506C152.765 15.8266 154.051 15.4646 155.472 15.4646C156.7 15.4646 157.843 15.7749 158.898 16.3954C159.954 16.9953 160.76 17.7917 161.317 18.7846V9.78636H163.966V32.7474H161.317V29.5515C160.799 30.5651 160.031 31.4029 159.014 32.0648C157.996 32.7061 156.806 33.0267 155.443 33.0267C154.042 33.0267 152.765 32.6544 151.614 31.9097C150.481 31.165 149.588 30.1204 148.936 28.7758C148.283 27.4312 147.957 25.9005 147.957 24.1836ZM161.317 24.2146C161.317 22.9321 161.077 21.8151 160.597 20.8635C160.117 19.912 159.465 19.188 158.639 18.6915C157.833 18.1744 156.94 17.9158 155.961 17.9158C154.982 17.9158 154.09 18.1641 153.284 18.6605C152.477 19.157 151.834 19.881 151.354 20.8325C150.874 21.784 150.635 22.9011 150.635 24.1836C150.635 25.4868 150.874 26.6245 151.354 27.5967C151.834 28.5482 152.477 29.2826 153.284 29.7997C154.09 30.2962 154.982 30.5444 155.961 30.5444C156.94 30.5444 157.833 30.2962 158.639 29.7997C159.465 29.2826 160.117 28.5482 160.597 27.5967C161.077 26.6245 161.317 25.4971 161.317 24.2146Z" fill="#2D1D76"/>
<path d="M169.747 12.9823C169.248 12.9823 168.826 12.7961 168.48 12.4238C168.135 12.0514 167.962 11.5964 167.962 11.0585C167.962 10.5207 168.135 10.0656 168.48 9.69328C168.826 9.32094 169.248 9.13477 169.747 9.13477C170.227 9.13477 170.63 9.32094 170.957 9.69328C171.302 10.0656 171.475 10.5207 171.475 11.0585C171.475 11.5964 171.302 12.0514 170.957 12.4238C170.63 12.7961 170.227 12.9823 169.747 12.9823ZM171.014 15.7438V32.7474H168.394V15.7438H171.014Z" fill="#2D1D76"/>
<path d="M174.501 24.2146C174.501 22.4563 174.827 20.9256 175.48 19.6224C176.133 18.2985 177.035 17.2746 178.187 16.5506C179.358 15.8266 180.692 15.4646 182.189 15.4646C184.128 15.4646 185.721 15.9714 186.969 16.985C188.236 17.9986 189.071 19.4052 189.474 21.2048H186.652C186.383 20.1706 185.856 19.3535 185.068 18.7536C184.301 18.1537 183.341 17.8538 182.189 17.8538C180.692 17.8538 179.482 18.4123 178.561 19.5293C177.64 20.6256 177.179 22.1874 177.179 24.2146C177.179 26.2625 177.64 27.8449 178.561 28.962C179.482 30.079 180.692 30.6375 182.189 30.6375C183.341 30.6375 184.301 30.3479 185.068 29.7687C185.836 29.1895 186.364 28.3621 186.652 27.2864H189.474C189.052 29.024 188.207 30.4203 186.94 31.4753C185.673 32.5096 184.089 33.0267 182.189 33.0267C180.692 33.0267 179.358 32.6647 178.187 31.9407C177.035 31.2167 176.133 30.1928 175.48 28.8689C174.827 27.545 174.501 25.9936 174.501 24.2146Z" fill="#2D1D76"/>
<path d="M191.991 24.1836C191.991 22.446 192.317 20.9256 192.97 19.6224C193.623 18.2985 194.515 17.2746 195.648 16.5506C196.8 15.8266 198.076 15.4646 199.478 15.4646C200.86 15.4646 202.059 15.7852 203.077 16.4265C204.094 17.0677 204.852 17.8745 205.352 18.8467V15.7438H208.001V32.7474H205.352V29.5825C204.833 30.5754 204.056 31.4029 203.019 32.0648C202.002 32.7061 200.812 33.0267 199.449 33.0267C198.047 33.0267 196.781 32.6544 195.648 31.9097C194.515 31.165 193.623 30.1204 192.97 28.7758C192.317 27.4312 191.991 25.9005 191.991 24.1836ZM205.352 24.2146C205.352 22.9321 205.112 21.8151 204.632 20.8635C204.152 19.912 203.499 19.188 202.674 18.6915C201.867 18.1744 200.975 17.9158 199.996 17.9158C199.017 17.9158 198.124 18.1641 197.318 18.6605C196.512 19.157 195.869 19.881 195.389 20.8325C194.909 21.784 194.669 22.9011 194.669 24.1836C194.669 25.4868 194.909 26.6245 195.389 27.5967C195.869 28.5482 196.512 29.2826 197.318 29.7997C198.124 30.2962 199.017 30.5444 199.996 30.5444C200.975 30.5444 201.867 30.2962 202.674 29.7997C203.499 29.2826 204.152 28.5482 204.632 27.5967C205.112 26.6245 205.352 25.4971 205.352 24.2146Z" fill="#2D1D76"/>
<path d="M22.4864 0C19.718 0 16.9767 0.545279 14.419 1.6047C11.8613 2.66413 9.53735 4.21695 7.57979 6.17451C5.62223 8.13208 4.0694 10.456 3.00998 13.0137C1.95055 15.5714 1.40527 18.3127 1.40527 21.0811C1.40527 23.8495 1.95055 26.5908 3.00998 29.1485C4.0694 31.7062 5.62223 34.0301 7.57979 35.9877C9.53735 37.9453 11.8613 39.4981 14.419 40.5575C16.9767 41.6169 19.718 42.1622 22.4864 42.1622V33.7298C20.8253 33.7298 19.1806 33.4026 17.646 32.767C16.1113 32.1313 14.717 31.1996 13.5424 30.0251C12.3679 28.8505 11.4362 27.4562 10.8005 25.9215C10.1649 24.3869 9.83772 22.7422 9.83772 21.0811C9.83772 19.4201 10.1649 17.7753 10.8005 16.2407C11.4362 14.7061 12.3679 13.3117 13.5424 12.1372C14.717 10.9626 16.1113 10.0309 17.646 9.39527C19.1806 8.75961 20.8253 8.43244 22.4864 8.43244V0Z" fill="#0889F7"/>
<path d="M1.84297e-06 0C2.76841 0 5.50972 0.545279 8.0674 1.6047C10.6251 2.66413 12.949 4.21695 14.9066 6.17451C16.8642 8.13208 18.417 10.456 19.4764 13.0137C20.5358 15.5714 21.0811 18.3127 21.0811 21.0811C21.0811 23.8495 20.5358 26.5908 19.4764 29.1485C18.417 31.7062 16.8642 34.0301 14.9066 35.9877C12.949 37.9453 10.6251 39.4981 8.06739 40.5575C5.50971 41.6169 2.76841 42.1622 0 42.1622L7.37188e-07 33.7298C1.66105 33.7298 3.30583 33.4026 4.84044 32.767C6.37504 32.1313 7.76942 31.1996 8.94396 30.0251C10.1185 28.8505 11.0502 27.4562 11.6858 25.9215C12.3215 24.3869 12.6487 22.7422 12.6487 21.0811C12.6487 19.4201 12.3215 17.7753 11.6858 16.2407C11.0502 14.7061 10.1185 13.3117 8.94396 12.1372C7.76942 10.9626 6.37504 10.0309 4.84044 9.39527C3.30583 8.75961 1.66105 8.43244 1.84297e-06 8.43244V0Z" fill="#2D1D76"/>
<path d="M17.568 23.2365H13.4924V27.4059H9.69775V23.2365H5.62207V19.6528H9.69775V15.46H13.4924V19.6528H17.568V23.2365Z" fill="#FBCB32"/>
</svg>
