<svg width="79" height="79" viewBox="0 0 79 79" fill="none" xmlns="http://www.w3.org/2000/svg">
<g filter="url(#filter0_d_2_131)">
<rect x="6" y="6" width="66.3793" height="66.3793" rx="14.2593" fill="white"/>
<path d="M16.0014 57.2276H35.7994C36.0163 57.2276 36.1922 57.0526 36.1922 56.8366C36.1922 56.6965 36.1168 56.567 35.9945 56.4974L35.7337 56.3487C35.5905 56.2672 35.5022 56.1156 35.5022 55.9514V54.7095C35.5022 54.4567 35.2963 54.2517 35.0423 54.2517H16.8167C16.5627 54.2517 16.3568 54.4567 16.3568 54.7095V55.9217C16.3568 56.0866 16.2677 56.2388 16.1235 56.3201L15.8082 56.4979C15.6853 56.5672 15.6094 56.6968 15.6094 56.8374C15.6094 57.0529 15.7849 57.2276 16.0014 57.2276Z" fill="#224AF5"/>
<path d="M33.4215 53.5138H18.4831C18.2534 53.5138 18.0875 53.2932 18.183 53.0852C18.8097 51.7204 20.2174 51.4587 20.8988 51.5108H31.0177C32.8219 51.6255 33.5234 52.5187 33.7173 53.1659C33.773 53.3517 33.6162 53.5138 33.4215 53.5138Z" fill="#2B2F3B"/>
<path d="M43.0997 39.0896L40.7382 42.9916C40.6084 43.2061 40.3297 43.277 40.1125 43.1508L40.0425 43.1102C39.9012 43.0281 39.8143 42.8776 39.8143 42.7147V42.2575C39.8143 42.0703 39.6998 41.902 39.5251 41.8325L38.6585 41.4874C38.4877 41.4194 38.2926 41.4593 38.1625 41.5888L37.7858 41.9637C37.687 42.062 37.5487 42.1103 37.4098 42.095L36.7874 42.0261C36.4549 41.9894 36.2718 41.6227 36.4432 41.3366L39.4452 36.3258C39.6173 36.0384 40.0309 36.0259 40.2202 36.3023L40.5292 36.7534C40.6206 36.8869 40.6346 37.0585 40.566 37.2049L40.4353 37.4835C40.3419 37.6829 40.404 37.9202 40.5834 38.0487L41.4439 38.6654C41.6039 38.7801 41.8195 38.7805 41.98 38.6664L42.3118 38.4305C42.4394 38.3398 42.6045 38.32 42.75 38.3779L42.8765 38.4283C43.1398 38.5331 43.246 38.8479 43.0997 39.0896Z" fill="#2B2F3B"/>
<path d="M55.4526 50.4746C54.0726 48.8812 45.467 44.2104 42.8661 43.1481C42.6999 43.0803 42.6094 42.9018 42.6695 42.7333C42.9394 41.9776 43.427 41.217 43.7638 40.7618C43.8686 40.6202 44.0683 40.592 44.2162 40.6883C51.6048 45.5042 56.1586 47.3115 57.5224 47.6132C63.2258 48.6662 63.3484 51.3331 62.6968 52.5349C60.995 55.1445 57.1582 52.2487 55.4526 50.4746Z" fill="#2B2F3B"/>
<path d="M34.3524 42.4626L24.2909 36.9687L29.1779 28.2699L39.1818 33.9356L34.3524 42.4626Z" fill="#224AF5"/>
<path d="M22.1841 38.424L22.2773 38.2757C22.536 37.8637 23.0732 37.7251 23.5004 37.9602L33.8945 43.6804C34.3348 43.9228 34.4855 44.4837 34.2319 44.9164C34.0325 45.2566 33.6277 45.427 33.2448 45.3276C32.8493 45.2249 32.4347 45.406 32.2429 45.7654L31.8372 46.5255C31.693 46.7957 31.7494 47.1286 31.9746 47.3367C32.2184 47.5621 32.2619 47.9302 32.0774 48.2057L31.7349 48.7171C31.3315 49.3194 30.5277 49.5067 29.8976 49.1451L20.8938 43.9781C20.2603 43.6145 20.0403 42.8101 20.4013 42.177L20.7841 41.5056C20.8835 41.3312 21.0948 41.2538 21.2841 41.3223C21.4629 41.387 21.663 41.3216 21.7685 41.1641L22.4065 40.2115C22.5981 39.9255 22.5534 39.5436 22.301 39.3091C22.0543 39.0799 22.0053 38.7089 22.1841 38.424Z" fill="#224AF5"/>
<path d="M41.1282 32.3828L41.0328 32.5297C40.7678 32.9377 40.2285 33.0681 39.805 32.8266L29.4997 26.9493C29.0631 26.7002 28.9211 26.1371 29.1812 25.7083C29.3858 25.3711 29.7932 25.2069 30.1746 25.3121C30.5685 25.4208 30.9858 25.246 31.1831 24.8896L31.6004 24.1357C31.7487 23.8678 31.6974 23.5341 31.4754 23.3225C31.2351 23.0935 31.1972 22.7248 31.3859 22.4521L31.7362 21.946C32.1488 21.3498 32.9554 21.1748 33.5798 21.5459L42.5034 26.849C43.1313 27.2221 43.339 28.0298 42.9683 28.6573L42.5752 29.3229C42.4732 29.4957 42.2607 29.5699 42.0725 29.4986C41.8947 29.4311 41.6936 29.4934 41.5857 29.6494L40.9332 30.5922C40.7373 30.8752 40.7761 31.2578 41.0249 31.4961C41.2681 31.729 41.3114 32.1007 41.1282 32.3828Z" fill="#224AF5"/>
</g>
<defs>
<filter id="filter0_d_2_131" x="0" y="0" width="78.3789" height="78.3789" filterUnits="userSpaceOnUse" color-interpolation-filters="sRGB">
<feFlood flood-opacity="0" result="BackgroundImageFix"/>
<feColorMatrix in="SourceAlpha" type="matrix" values="0 0 0 0 0 0 0 0 0 0 0 0 0 0 0 0 0 0 127 0" result="hardAlpha"/>
<feOffset/>
<feGaussianBlur stdDeviation="3"/>
<feComposite in2="hardAlpha" operator="out"/>
<feColorMatrix type="matrix" values="0 0 0 0 0 0 0 0 0 0 0 0 0 0 0 0 0 0 0.25 0"/>
<feBlend mode="normal" in2="BackgroundImageFix" result="effect1_dropShadow_2_131"/>
<feBlend mode="normal" in="SourceGraphic" in2="effect1_dropShadow_2_131" result="shape"/>
</filter>
</defs>
</svg>
