<svg width="128" height="54" viewBox="0 0 128 54" fill="none" xmlns="http://www.w3.org/2000/svg">
<g clip-path="url(#clip0_1034_4141)">
<path fill-rule="evenodd" clip-rule="evenodd" d="M6.41515 0C2.87216 0 0 2.87217 0 6.41515V46.9771C0 50.5201 2.87217 53.3923 6.41515 53.3923H62.4341C65.9771 53.3923 68.8493 50.5201 68.8493 46.9771V6.41515C68.8493 2.87216 65.9771 0 62.4341 0H6.41515ZM29.0495 34.269L15.356 34.2938V44.8556H10.3047V31.7727V29.247H12.828L29.0404 29.2177L29.0495 34.269ZM10.5572 27.3781C10.5572 24.6441 12.7735 22.4278 15.5075 22.4278H35.9148V26.3214V27.3781V35.3591C35.9148 37.7862 37.8823 39.7537 40.3094 39.7537H45.0043H53.2912V8.58721H58.3425V42.2794V44.805H55.8169H45.0043H40.3094C35.0926 44.805 30.8635 40.5759 30.8635 35.3591V27.3781H10.5572ZM30.8635 20.5588V15.5075H35.9148V20.5588H30.8635ZM33.3891 13.6385C34.784 13.6385 35.9148 12.5077 35.9148 11.1129C35.9148 9.718 34.784 8.58721 33.3891 8.58721C31.9942 8.58721 30.8635 9.718 30.8635 11.1129C30.8635 12.5077 31.9942 13.6385 33.3891 13.6385ZM33.3891 12.0156C32.8905 12.0156 32.4863 11.6114 32.4863 11.1129C32.4863 10.6143 32.8905 10.2101 33.3891 10.2101C33.8877 10.2101 34.2919 10.6143 34.2919 11.1129C34.2919 11.6114 33.8877 12.0156 33.3891 12.0156Z" fill="#3688E5"/>
<path d="M82.3581 18.8929H82.6243V9.68065C82.6243 9.4439 82.6389 9.22189 82.6687 9.01474C82.6985 8.80016 82.7612 8.61513 82.8576 8.45975C82.9612 8.30438 83.1092 8.18229 83.3011 8.09348C83.5012 7.99731 83.7714 7.94922 84.1114 7.94922C84.4887 7.94922 84.7847 7.99731 84.9994 8.09348C85.2216 8.18229 85.3878 8.30438 85.499 8.45975C85.6101 8.61513 85.6803 8.80016 85.7096 9.01474C85.7394 9.22189 85.7541 9.4439 85.7541 9.68065V20.9351C85.7541 21.2607 85.7429 21.5752 85.7207 21.8785C85.7061 22.1819 85.647 22.4556 85.5434 22.6998C85.4469 22.9366 85.2843 23.129 85.0549 23.277C84.8332 23.4176 84.5185 23.4879 84.1114 23.4879H82.6465C82.299 23.4879 82.0065 23.4213 81.7696 23.2881C81.5403 23.1475 81.3478 22.981 81.1927 22.7886C81.0371 22.5889 80.9114 22.3817 80.8154 22.1671C80.7265 21.9525 80.6563 21.7712 80.6042 21.6232L77.2522 12.5442H76.986V21.7564C76.986 21.9932 76.9713 22.2189 76.9415 22.4335C76.9117 22.6407 76.8456 22.8219 76.742 22.9773C76.6455 23.1327 76.4975 23.2585 76.298 23.3547C76.1056 23.4435 75.8389 23.4879 75.4989 23.4879C75.114 23.4879 74.8104 23.4435 74.5887 23.3547C74.3664 23.2585 74.2002 23.1327 74.0891 22.9773C73.9779 22.8219 73.9077 22.6407 73.8784 22.4335C73.8486 22.2189 73.834 21.9932 73.834 21.7564V10.502C73.834 10.1838 73.8411 9.87306 73.8562 9.56968C73.8784 9.25892 73.9411 8.98514 74.0446 8.74834C74.1482 8.50416 74.3113 8.3118 74.5331 8.17117C74.7624 8.02322 75.0842 7.94922 75.4989 7.94922H76.9638C77.3335 7.94922 77.6336 8.02322 77.8629 8.17117C78.0998 8.3118 78.2918 8.46718 78.4398 8.63736C78.6029 8.83714 78.7322 9.06652 78.8282 9.3255L82.3581 18.8929ZM92.3329 10.502C92.3329 10.1838 92.3475 9.87306 92.3773 9.56968C92.4142 9.2663 92.492 8.9962 92.6102 8.75945C92.736 8.51527 92.9213 8.31918 93.1653 8.17117C93.4093 8.02322 93.7462 7.94922 94.1751 7.94922C94.6044 7.94922 94.9414 8.02322 95.1853 8.17117C95.4293 8.31918 95.6107 8.51527 95.7294 8.75945C95.8551 8.9962 95.9324 9.2663 95.9622 9.56968C95.9991 9.87306 96.0178 10.1838 96.0178 10.502V20.9351C96.0178 21.2607 96.0031 21.5752 95.9733 21.8785C95.9435 22.1819 95.8663 22.4556 95.7405 22.6998C95.6218 22.9366 95.4369 23.129 95.1853 23.277C94.9414 23.4176 94.6044 23.4879 94.1751 23.4879C93.7462 23.4879 93.4093 23.4176 93.1653 23.277C92.9213 23.129 92.736 22.9366 92.6102 22.6998C92.492 22.4556 92.4142 22.1819 92.3773 21.8785C92.3475 21.5752 92.3329 21.2607 92.3329 20.9351V10.502ZM109.322 7.94922C109.618 7.94922 109.914 7.96033 110.21 7.98251C110.514 8.00468 110.787 8.06762 111.032 8.17117C111.276 8.27478 111.472 8.43389 111.62 8.64847C111.775 8.85562 111.853 9.14789 111.853 9.52528C111.853 9.89523 111.775 10.1875 111.62 10.4021C111.472 10.6093 111.276 10.7647 111.032 10.8683C110.787 10.9719 110.514 11.0384 110.21 11.068C109.914 11.0902 109.618 11.1013 109.322 11.1013H108.19V20.9573C108.19 21.2755 108.179 21.5863 108.157 21.8896C108.142 22.193 108.083 22.4631 107.979 22.6998C107.876 22.9366 107.71 23.129 107.48 23.277C107.25 23.4176 106.925 23.4879 106.503 23.4879C106.082 23.4879 105.756 23.4176 105.526 23.277C105.297 23.129 105.131 22.9366 105.027 22.6998C104.924 22.4631 104.861 22.193 104.838 21.8896C104.824 21.5863 104.816 21.2755 104.816 20.9573V11.1013H103.684C103.388 11.1013 103.089 11.0902 102.785 11.068C102.489 11.0384 102.219 10.9719 101.975 10.8683C101.731 10.7647 101.531 10.6093 101.376 10.4021C101.228 10.1875 101.153 9.89523 101.153 9.52528C101.153 9.14789 101.228 8.85562 101.376 8.64847C101.531 8.43389 101.731 8.27478 101.975 8.17117C102.219 8.06762 102.489 8.00468 102.785 7.98251C103.089 7.96033 103.388 7.94922 103.684 7.94922H109.322ZM122.383 20.9795C122.383 21.2903 122.368 21.5973 122.339 21.9007C122.309 22.1967 122.239 22.4631 122.127 22.6998C122.017 22.9366 121.85 23.129 121.628 23.277C121.406 23.4176 121.103 23.4879 120.718 23.4879C120.326 23.4879 120.019 23.4176 119.797 23.277C119.575 23.129 119.405 22.9366 119.286 22.6998C119.175 22.4631 119.105 22.1967 119.075 21.9007C119.046 21.5973 119.031 21.2903 119.031 20.9795V17.117L115.723 11.2123C115.546 10.9016 115.376 10.5982 115.213 10.3022C115.05 9.99884 114.969 9.69545 114.969 9.39207C114.969 9.19229 115.024 8.99251 115.135 8.79274C115.254 8.58553 115.464 8.39318 115.768 8.21557C116.101 8.03802 116.411 7.94922 116.7 7.94922C116.922 7.94922 117.122 8.00099 117.299 8.1046C117.484 8.20077 117.651 8.33029 117.799 8.49304C117.947 8.65585 118.08 8.84082 118.199 9.04803C118.317 9.24781 118.424 9.45127 118.52 9.65848L120.54 13.8983H120.895L122.915 9.65848C123.012 9.45127 123.119 9.24781 123.238 9.04803C123.356 8.84082 123.489 8.65585 123.637 8.49304C123.785 8.33029 123.948 8.20077 124.125 8.1046C124.311 8.00099 124.514 7.94922 124.736 7.94922C124.891 7.94922 125.043 7.97139 125.191 8.0158C125.339 8.0602 125.498 8.12677 125.668 8.21557C125.957 8.39318 126.16 8.58553 126.279 8.79274C126.404 8.99251 126.468 9.19229 126.468 9.39207C126.468 9.52528 126.408 9.74354 126.29 10.0469C126.172 10.3429 125.979 10.7314 125.712 11.2123L122.383 17.117V20.9795Z" fill="#3688E5"/>
<path d="M76.6055 32.5172C76.6131 32.8279 76.702 33.1091 76.8717 33.3607C77.0495 33.6049 77.2788 33.8379 77.5602 34.0599C77.8486 34.2819 78.1744 34.5002 78.5366 34.7147C78.8993 34.9219 79.2695 35.1439 79.6469 35.3807C80.0313 35.6101 80.4051 35.8617 80.7677 36.1354C81.1304 36.4092 81.4557 36.72 81.7442 37.0677C82.0331 37.4155 82.266 37.8077 82.4438 38.2442C82.6211 38.6808 82.7176 39.1766 82.7322 39.7315V39.8203C82.7322 40.4271 82.6585 40.9561 82.5104 41.4075C82.3624 41.8588 82.166 42.2473 81.922 42.5729C81.678 42.8985 81.3931 43.1685 81.0673 43.3831C80.742 43.5903 80.3975 43.7568 80.0353 43.8826C79.6802 44.0084 79.3175 44.0972 78.9473 44.149C78.5851 44.2007 78.2406 44.2303 77.9153 44.2378H77.8042C77.1753 44.2378 76.6242 44.1749 76.1504 44.049C75.6771 43.9233 75.2699 43.7568 74.9295 43.5496C74.589 43.335 74.3041 43.0909 74.0748 42.8171C73.853 42.5433 73.6752 42.2621 73.5424 41.9736C73.409 41.6776 73.313 41.3853 73.2534 41.0967C73.1943 40.8081 73.165 40.5381 73.165 40.2865C73.165 40.0275 73.209 39.8018 73.2979 39.6094C73.3868 39.417 73.5015 39.2617 73.6419 39.1433C73.7899 39.0175 73.9566 38.925 74.1415 38.8658C74.3339 38.8066 74.5339 38.777 74.741 38.777C74.9335 38.777 75.1295 38.8066 75.329 38.8658C75.5361 38.925 75.7215 39.0175 75.8842 39.1433C76.0544 39.2617 76.1913 39.417 76.2948 39.6094C76.406 39.7944 76.4651 40.0127 76.4721 40.2643C76.4873 40.8192 76.6131 41.2003 76.85 41.4075C77.0864 41.6073 77.4268 41.7072 77.8708 41.7072C78.0926 41.6998 78.2962 41.6739 78.481 41.6295C78.6735 41.5777 78.8366 41.4926 78.9695 41.3742C79.1028 41.2484 79.2064 41.0856 79.2806 40.8858C79.362 40.6787 79.4024 40.4197 79.4024 40.1089C79.4024 39.7241 79.3135 39.3764 79.1362 39.0656C78.966 38.7548 78.7402 38.4662 78.4593 38.1999C78.1779 37.9335 77.8562 37.6819 77.4935 37.4451C77.1308 37.2009 76.7611 36.9604 76.3837 36.7237C76.0064 36.4795 75.6361 36.2279 75.2735 35.969C74.9183 35.7026 74.5966 35.414 74.3081 35.1032C74.0192 34.7925 73.7863 34.4484 73.6085 34.071C73.4388 33.6937 73.3499 33.2645 73.3423 32.7835V32.6059C73.3499 31.8142 73.4535 31.1556 73.653 30.6303C73.8606 30.105 74.1601 29.6869 74.5521 29.3761C74.9517 29.0654 75.4401 28.847 76.0175 28.7213C76.5944 28.5881 77.2566 28.5215 78.0042 28.5215H78.2926C78.9735 28.5215 79.5504 28.5955 80.0242 28.7435C80.4975 28.8914 80.89 29.0802 81.2006 29.3095C81.5189 29.5389 81.7664 29.7979 81.9442 30.0864C82.1291 30.375 82.266 30.6599 82.3549 30.9411C82.4438 31.2223 82.4993 31.4849 82.5216 31.7291C82.5433 31.9733 82.5544 32.1694 82.5544 32.3173C82.5544 32.5393 82.5105 32.7428 82.4216 32.9278C82.3402 33.1054 82.2256 33.2571 82.0776 33.3829C81.9366 33.5086 81.7664 33.6085 81.5669 33.6826C81.3744 33.7491 81.1638 33.7824 80.9339 33.7824C80.7566 33.7824 80.5788 33.7491 80.4015 33.6826C80.2237 33.6085 80.0646 33.5161 79.9242 33.4051C79.7838 33.2941 79.6691 33.1683 79.5802 33.0277C79.4913 32.8797 79.4468 32.7317 79.4468 32.5837C79.4468 31.977 79.3357 31.5552 79.114 31.3184C78.8993 31.0817 78.581 30.9633 78.1593 30.9633C77.9597 30.9633 77.7637 30.9744 77.5713 30.9966C77.3864 31.0187 77.2197 31.0817 77.0717 31.1852C76.9313 31.2815 76.8166 31.4332 76.7277 31.6403C76.6464 31.8475 76.6055 32.1398 76.6055 32.5172ZM88.4897 31.1631C88.4897 30.8449 88.5043 30.5341 88.5341 30.2307C88.571 29.9274 88.6488 29.6573 88.767 29.4205C88.8928 29.1763 89.0777 28.9802 89.3221 28.8322C89.5661 28.6843 89.903 28.6103 90.3319 28.6103C90.7612 28.6103 91.0977 28.6843 91.3421 28.8322C91.5861 28.9802 91.7675 29.1763 91.8857 29.4205C92.0114 29.6573 92.0892 29.9274 92.119 30.2307C92.1559 30.5341 92.1746 30.8449 92.1746 31.1631V41.5962C92.1746 41.9217 92.1594 42.2362 92.1302 42.5396C92.1003 42.843 92.0226 43.1167 91.8968 43.3609C91.7786 43.5977 91.5937 43.7901 91.3421 43.9381C91.0977 44.0786 90.7612 44.149 90.3319 44.149C89.903 44.149 89.5661 44.0786 89.3221 43.9381C89.0777 43.7901 88.8928 43.5977 88.767 43.3609C88.6488 43.1167 88.571 42.843 88.5341 42.5396C88.5043 42.2362 88.4897 41.9217 88.4897 41.5962V31.1631ZM98.3534 33.0055C98.3534 32.2952 98.4569 31.6921 98.664 31.1964C98.8716 30.6932 99.1343 30.2751 99.452 29.9422C99.7778 29.6092 100.133 29.3502 100.518 29.1652C100.91 28.9729 101.287 28.8286 101.65 28.7324C102.02 28.6362 102.353 28.577 102.649 28.5548C102.945 28.5326 103.163 28.5215 103.304 28.5215H103.681C103.821 28.5215 104.04 28.5326 104.336 28.5548C104.632 28.577 104.961 28.6362 105.324 28.7324C105.686 28.8286 106.06 28.9729 106.445 29.1652C106.837 29.3502 107.188 29.6092 107.499 29.9422C107.817 30.2751 108.076 30.6932 108.276 31.1964C108.483 31.6921 108.587 32.2952 108.587 33.0055V39.6427C108.587 40.3753 108.483 40.9968 108.276 41.5074C108.076 42.0179 107.817 42.4434 107.499 42.7838C107.188 43.1241 106.837 43.3942 106.445 43.594C106.06 43.7864 105.686 43.9307 105.324 44.0269C104.961 44.123 104.632 44.1822 104.336 44.2045C104.04 44.2266 103.821 44.2378 103.681 44.2378H103.304C103.163 44.2378 102.945 44.2266 102.649 44.2045C102.353 44.1822 102.02 44.123 101.65 44.0269C101.287 43.9307 100.91 43.7864 100.518 43.594C100.133 43.3942 99.7778 43.1241 99.452 42.7838C99.1343 42.4434 98.8716 42.0179 98.664 41.5074C98.4569 40.9968 98.3534 40.3753 98.3534 39.6427V33.0055ZM102.038 40.0645C102.053 40.3383 102.116 40.5787 102.227 40.7859C102.323 40.9709 102.468 41.1374 102.66 41.2854C102.86 41.4334 103.141 41.5074 103.504 41.5074C103.859 41.5074 104.133 41.4334 104.325 41.2854C104.517 41.1374 104.661 40.9709 104.757 40.7859C104.861 40.5787 104.924 40.3383 104.946 40.0645V32.8279C104.924 32.5615 104.861 32.3211 104.757 32.1065C104.661 31.9289 104.517 31.7661 104.325 31.6181C104.133 31.4628 103.859 31.385 103.504 31.385C103.141 31.385 102.86 31.4628 102.66 31.6181C102.468 31.7661 102.323 31.9289 102.227 32.1065C102.116 32.3211 102.053 32.5615 102.038 32.8279V40.0645ZM123.068 39.5539H123.334V30.3417C123.334 30.105 123.349 29.883 123.379 29.6758C123.408 29.4612 123.471 29.2762 123.567 29.1208C123.671 28.9654 123.819 28.8434 124.011 28.7546C124.211 28.6584 124.481 28.6103 124.822 28.6103C125.199 28.6103 125.495 28.6584 125.71 28.7546C125.931 28.8434 126.098 28.9654 126.209 29.1208C126.32 29.2762 126.39 29.4612 126.42 29.6758C126.449 29.883 126.464 30.105 126.464 30.3417V41.5962C126.464 41.9217 126.453 42.2362 126.431 42.5396C126.416 42.843 126.357 43.1167 126.253 43.3609C126.157 43.5977 125.995 43.7901 125.765 43.9381C125.543 44.0786 125.228 44.149 124.822 44.149H123.356C123.009 44.149 122.716 44.0824 122.48 43.9492C122.251 43.8086 122.058 43.6421 121.903 43.4497C121.747 43.2499 121.621 43.0428 121.525 42.8282C121.436 42.6136 121.366 42.4323 121.314 42.2843L117.963 33.2053H117.696V42.4175C117.696 42.6543 117.681 42.88 117.651 43.0945C117.622 43.3017 117.555 43.483 117.452 43.6384C117.356 43.7938 117.208 43.9196 117.008 44.0157C116.815 44.1045 116.549 44.149 116.209 44.149C115.824 44.149 115.521 44.1045 115.298 44.0157C115.077 43.9196 114.91 43.7938 114.799 43.6384C114.688 43.483 114.618 43.3017 114.588 43.0945C114.558 42.88 114.544 42.6543 114.544 42.4175V31.1631C114.544 30.8449 114.551 30.5341 114.566 30.2307C114.588 29.92 114.651 29.6462 114.755 29.4094C114.858 29.1652 115.021 28.9729 115.243 28.8322C115.473 28.6843 115.794 28.6103 116.209 28.6103H117.674C118.044 28.6103 118.343 28.6843 118.573 28.8322C118.81 28.9729 119.002 29.1282 119.15 29.2984C119.313 29.4982 119.442 29.7276 119.539 29.9866L123.068 39.5539Z" fill="#3688E5"/>
</g>
<defs>
<clipPath id="clip0_1034_4141">
<rect width="128" height="53.3923" fill="white"/>
</clipPath>
</defs>
</svg>
