<svg width="283" height="94" viewBox="0 0 283 94" fill="none" xmlns="http://www.w3.org/2000/svg">
<g filter="url(#filter0_d_40_49)">
<path d="M32.0219 34.6866V54.8581C32.0004 56.4744 32.7328 60.2242 37.1291 60.2242C39.0687 60.2242 41.9654 58.6337 41.9137 54.8581V47.7143C41.9137 47.6022 42.0466 47.5432 42.1297 47.6183L53.3571 57.7674C54.7148 58.9311 58.2704 60.806 60.9211 57.9614C62.2788 56.2804 62.99 53.3064 58.6586 49.298L40.3764 30.1209C40.298 30.0386 40.3563 29.9023 40.47 29.9023H56.9777C58.5724 29.9239 62.013 30.3549 62.2141 34.428C62.2908 35.9796 61.0637 39.4321 56.9777 39.2769H50.1892" stroke="white" stroke-width="4.1083" stroke-linecap="round"/>
<path d="M98.7505 58.5H92.841L85.5377 48.2978L84.2741 49.803V58.5H79.7398V32.4834H84.2741V42.76L92.8781 32.4834H98.8062L88.4925 44.7484L98.7505 58.5ZM108.06 58.9832C106.351 58.9832 104.79 58.5434 103.377 57.6638C101.977 56.7841 100.856 55.6072 100.014 54.1329C99.1838 52.6463 98.7687 51.0047 98.7687 49.2084C98.7687 47.8456 99.0103 46.5757 99.4935 45.3988C99.9767 44.2095 100.639 43.1688 101.482 42.2768C102.337 41.3724 103.328 40.6662 104.455 40.1583C105.583 39.6504 106.784 39.3964 108.06 39.3964C109.77 39.3964 111.325 39.8362 112.725 40.7158C114.137 41.5954 115.258 42.7785 116.088 44.2652C116.931 45.7519 117.352 47.3996 117.352 49.2084C117.352 50.5587 117.11 51.8224 116.627 52.9993C116.144 54.1763 115.475 55.217 114.62 56.1213C113.778 57.0133 112.793 57.7133 111.666 58.2213C110.551 58.7292 109.349 58.9832 108.06 58.9832ZM108.06 54.4488C108.965 54.4488 109.776 54.2073 110.495 53.7241C111.213 53.2409 111.777 52.6029 112.186 51.81C112.607 51.0171 112.818 50.1499 112.818 49.2084C112.818 48.242 112.601 47.3624 112.167 46.5695C111.746 45.7643 111.17 45.1262 110.439 44.6555C109.72 44.1723 108.928 43.9307 108.06 43.9307C107.168 43.9307 106.363 44.1723 105.645 44.6555C104.926 45.1386 104.356 45.7828 103.935 46.5881C103.514 47.3934 103.303 48.2668 103.303 49.2084C103.303 50.1871 103.52 51.0729 103.953 51.8658C104.387 52.6587 104.963 53.2905 105.682 53.7613C106.413 54.2197 107.206 54.4488 108.06 54.4488ZM134.367 30.6251H138.901V58.5H134.367V56.1771C133.772 57.0071 133.023 57.6823 132.118 58.2027C131.214 58.723 130.167 58.9832 128.978 58.9832C127.628 58.9832 126.364 58.7292 125.187 58.2213C124.01 57.7133 122.969 57.0133 122.065 56.1213C121.173 55.217 120.473 54.1763 119.965 52.9993C119.457 51.8224 119.203 50.5587 119.203 49.2084C119.203 47.858 119.457 46.5943 119.965 45.4174C120.473 44.2404 121.173 43.206 122.065 42.314C122.969 41.4096 124.01 40.7034 125.187 40.1955C126.364 39.6875 127.628 39.4336 128.978 39.4336C130.167 39.4336 131.214 39.6937 132.118 40.2141C133.023 40.722 133.772 41.3972 134.367 42.2396V30.6251ZM129.034 54.6161C130 54.6161 130.855 54.3745 131.598 53.8913C132.341 53.4082 132.924 52.7578 133.345 51.9401C133.766 51.11 133.977 50.1995 133.977 49.2084C133.977 48.2049 133.766 47.2943 133.345 46.4766C132.924 45.6466 132.335 44.99 131.58 44.5068C130.836 44.0236 129.988 43.782 129.034 43.782C128.08 43.782 127.206 44.0298 126.413 44.5254C125.633 45.0085 125.007 45.659 124.536 46.4766C124.078 47.2943 123.849 48.2049 123.849 49.2084C123.849 50.2119 124.084 51.1224 124.555 51.9401C125.026 52.7578 125.651 53.4082 126.432 53.8913C127.225 54.3745 128.092 54.6161 129.034 54.6161ZM151.252 58.9832C149.542 58.9832 147.981 58.5434 146.569 57.6638C145.169 56.7841 144.048 55.601 143.205 54.1143C142.375 52.6277 141.96 50.9862 141.96 49.1898C141.96 47.8394 142.202 46.5757 142.685 45.3988C143.168 44.2095 143.831 43.1688 144.674 42.2768C145.528 41.3724 146.519 40.6662 147.647 40.1583C148.774 39.6504 149.976 39.3964 151.252 39.3964C152.701 39.3964 154.027 39.7061 155.229 40.3256C156.443 40.9326 157.471 41.7689 158.314 42.8343C159.156 43.8997 159.769 45.1138 160.153 46.4766C160.537 47.8394 160.624 49.2641 160.414 50.7508H146.829C147.003 51.4445 147.288 52.0702 147.684 52.6277C148.08 53.1728 148.582 53.6126 149.189 53.9471C149.796 54.2692 150.484 54.4365 151.252 54.4488C152.045 54.4612 152.763 54.2754 153.408 53.8913C154.064 53.4949 154.609 52.9622 155.043 52.2932L159.67 53.371C158.914 55.0187 157.787 56.3691 156.288 57.4222C154.789 58.4628 153.11 58.9832 151.252 58.9832ZM146.681 47.35H155.823C155.687 46.6067 155.396 45.9377 154.95 45.343C154.516 44.736 153.978 44.2528 153.333 43.8935C152.689 43.5343 151.995 43.3546 151.252 43.3546C150.509 43.3546 149.821 43.5343 149.189 43.8935C148.557 44.2404 148.018 44.7174 147.572 45.3245C147.139 45.9191 146.842 46.5943 146.681 47.35ZM163.147 58.5V32.4834H173.126C174.538 32.4834 175.814 32.8365 176.954 33.5427C178.094 34.2488 178.998 35.1966 179.667 36.3859C180.336 37.5628 180.671 38.8699 180.671 40.307C180.671 41.4839 180.454 42.5679 180.02 43.559C179.599 44.5378 179.004 45.3864 178.236 46.105C177.481 46.8235 176.607 47.3686 175.616 47.7403L181.842 58.5H176.62L170.599 48.1491H167.681V58.5H163.147ZM167.681 43.6148H172.606C173.25 43.6148 173.838 43.4537 174.371 43.1316C174.904 42.8095 175.331 42.3759 175.653 41.8308C175.975 41.2857 176.136 40.6786 176.136 40.0096C176.136 39.3282 175.975 38.715 175.653 38.1699C175.331 37.6248 174.904 37.1912 174.371 36.8691C173.838 36.547 173.25 36.3859 172.606 36.3859H167.681V43.6148ZM192.302 58.9832C190.592 58.9832 189.032 58.5434 187.619 57.6638C186.219 56.7841 185.098 55.6072 184.256 54.1329C183.426 52.6463 183.011 51.0047 183.011 49.2084C183.011 47.8456 183.252 46.5757 183.735 45.3988C184.218 44.2095 184.881 43.1688 185.724 42.2768C186.579 41.3724 187.57 40.6662 188.697 40.1583C189.824 39.6504 191.026 39.3964 192.302 39.3964C194.012 39.3964 195.567 39.8362 196.967 40.7158C198.379 41.5954 199.5 42.7785 200.33 44.2652C201.173 45.7519 201.594 47.3996 201.594 49.2084C201.594 50.5587 201.352 51.8224 200.869 52.9993C200.386 54.1763 199.717 55.217 198.862 56.1213C198.02 57.0133 197.035 57.7133 195.907 58.2213C194.792 58.7292 193.591 58.9832 192.302 58.9832ZM192.302 54.4488C193.207 54.4488 194.018 54.2073 194.737 53.7241C195.455 53.2409 196.019 52.6029 196.428 51.81C196.849 51.0171 197.059 50.1499 197.059 49.2084C197.059 48.242 196.843 47.3624 196.409 46.5695C195.988 45.7643 195.412 45.1262 194.681 44.6555C193.962 44.1723 193.169 43.9307 192.302 43.9307C191.41 43.9307 190.605 44.1723 189.886 44.6555C189.168 45.1386 188.598 45.7828 188.177 46.5881C187.755 47.3934 187.545 48.2668 187.545 49.2084C187.545 50.1871 187.762 51.0729 188.195 51.8658C188.629 52.6587 189.205 53.2905 189.923 53.7613C190.654 54.2197 191.447 54.4488 192.302 54.4488ZM203.345 51.6242V39.9167H207.879V50.4349C207.879 51.1658 208.059 51.8348 208.418 52.4419C208.777 53.0365 209.254 53.5135 209.849 53.8728C210.456 54.2197 211.119 54.3931 211.837 54.3931C212.581 54.3931 213.25 54.2197 213.844 53.8728C214.439 53.5135 214.916 53.0365 215.275 52.4419C215.634 51.8348 215.814 51.1658 215.814 50.4349V39.9167H220.348L220.367 58.5H215.833L215.814 56.8089C215.17 57.4779 214.408 58.0106 213.528 58.4071C212.649 58.7911 211.707 58.9832 210.704 58.9832C209.353 58.9832 208.121 58.6549 207.006 57.9983C205.891 57.3293 204.999 56.4435 204.33 55.3408C203.673 54.2258 203.345 52.987 203.345 51.6242ZM234.047 44.451H230.442V58.5H225.908V44.451H223.158V39.9167H225.908V34.0816H230.442V39.9167H234.047V44.451ZM245.148 58.9832C243.439 58.9832 241.878 58.5434 240.465 57.6638C239.065 56.7841 237.944 55.601 237.102 54.1143C236.272 52.6277 235.857 50.9862 235.857 49.1898C235.857 47.8394 236.098 46.5757 236.581 45.3988C237.065 44.2095 237.727 43.1688 238.57 42.2768C239.425 41.3724 240.416 40.6662 241.543 40.1583C242.671 39.6504 243.872 39.3964 245.148 39.3964C246.598 39.3964 247.923 39.7061 249.125 40.3256C250.339 40.9326 251.368 41.7689 252.21 42.8343C253.052 43.8997 253.666 45.1138 254.05 46.4766C254.434 47.8394 254.521 49.2641 254.31 50.7508H240.726C240.899 51.4445 241.184 52.0702 241.58 52.6277C241.977 53.1728 242.479 53.6126 243.086 53.9471C243.693 54.2692 244.38 54.4365 245.148 54.4488C245.941 54.4612 246.66 54.2754 247.304 53.8913C247.961 53.4949 248.506 52.9622 248.939 52.2932L253.567 53.371C252.811 55.0187 251.683 56.3691 250.184 57.4222C248.685 58.4628 247.007 58.9832 245.148 58.9832ZM240.577 47.35H249.72C249.584 46.6067 249.292 45.9377 248.846 45.343C248.413 44.736 247.874 44.2528 247.23 43.8935C246.585 43.5343 245.892 43.3546 245.148 43.3546C244.405 43.3546 243.717 43.5343 243.086 43.8935C242.454 44.2404 241.915 44.7174 241.469 45.3245C241.035 45.9191 240.738 46.5943 240.577 47.35ZM258.986 58.9832C258.341 58.9832 257.79 58.7602 257.332 58.3142C256.886 57.8558 256.663 57.2983 256.663 56.6417C256.663 56.0098 256.886 55.4647 257.332 55.0063C257.79 54.548 258.341 54.3188 258.986 54.3188C259.63 54.3188 260.181 54.548 260.64 55.0063C261.098 55.4647 261.327 56.0098 261.327 56.6417C261.327 57.2983 261.098 57.8558 260.64 58.3142C260.181 58.7602 259.63 58.9832 258.986 58.9832Z" fill="white"/>
</g>
<defs>
<filter id="filter0_d_40_49" x="0.286715" y="0.171458" width="284.427" height="93.5071" filterUnits="userSpaceOnUse" color-interpolation-filters="sRGB">
<feFlood flood-opacity="0" result="BackgroundImageFix"/>
<feColorMatrix in="SourceAlpha" type="matrix" values="0 0 0 0 0 0 0 0 0 0 0 0 0 0 0 0 0 0 127 0" result="hardAlpha"/>
<feOffset dy="1.92503"/>
<feGaussianBlur stdDeviation="10.3566"/>
<feComposite in2="hardAlpha" operator="out"/>
<feColorMatrix type="matrix" values="0 0 0 0 0 0 0 0 0 0 0 0 0 0 0 0 0 0 0.75 0"/>
<feBlend mode="normal" in2="BackgroundImageFix" result="effect1_dropShadow_40_49"/>
<feBlend mode="normal" in="SourceGraphic" in2="effect1_dropShadow_40_49" result="shape"/>
</filter>
</defs>
</svg>
